# xmcd
#
# Track frame offsets:
#	150
#	25980
#	45098
#	60360
#	79897
#	94634
#	120424
#	142099
#	167878
#	202997
#	222084
#	259046
#	278485
#
# Disc length: 3926 seconds
#
# Revision: 1
# Processed by: cddbd v1.5.2PL0 Copyright (c) Steve Scherf et al.
# Submitted via: audiograbber 1.83.01
#
DISCID=a70f540d
DTITLE=Reverend Dusty and The Case - Sinner Not A Saint
DYEAR=2009
DGENRE=Blues Rock
TTITLE0=Lady Luck
TTITLE1=Mess Around
TTITLE2=Black Forest Girl
TTITLE3=Fool Again
TTITLE4=Don't Waste My Time
TTITLE5=Coming Home
TTITLE6=Don't Point Your Fingers
TTITLE7=Heart And Soul
TTITLE8=Nobody
TTITLE9=Sinner Not A Saint
TTITLE10=Take My Hand
TTITLE11=Groovin' Like Bo Diddley
TTITLE12=Westcross
EXTD=
EXTT0=
EXTT1=
EXTT2=
EXTT3=
EXTT4=
EXTT5=
EXTT6=
EXTT7=
EXTT8=
EXTT9=
EXTT10=
EXTT11=
EXTT12=
PLAYORDER=
